<svg xmlns="http://www.w3.org/2000/svg" xmlns:xlink="http://www.w3.org/1999/xlink" width="500" zoomAndPan="magnify" viewBox="0 0 375 374.999991" height="500" preserveAspectRatio="xMidYMid meet" version="1.0"><defs><clipPath id="ee05d22064"><path d="M 164.3125 7.296875 L 366.8125 7.296875 L 366.8125 374.796875 L 164.3125 374.796875 Z M 164.3125 7.296875 " clip-rule="nonzero"/></clipPath><clipPath id="e45187d04e"><path d="M 0 76.246094 L 164 76.246094 L 164 374.746094 L 0 374.746094 Z M 0 76.246094 " clip-rule="nonzero"/></clipPath></defs><g clip-path="url(#ee05d22064)"><path fill="#000000" d="M 365.886719 366.160156 L 357.898438 349.921875 L 357.898438 179.988281 C 357.898438 176.734375 355.25 174.085938 351.988281 174.085938 L 330.5625 174.085938 C 330.148438 156.679688 322.757812 115.761719 311.902344 80.117188 C 301.820312 47.007812 285.613281 7.546875 265.636719 7.4375 C 265.609375 7.4375 265.582031 7.433594 265.554688 7.433594 C 265.523438 7.433594 265.496094 7.4375 265.46875 7.4375 C 245.492188 7.546875 229.285156 47.007812 219.203125 80.117188 C 208.347656 115.761719 200.957031 156.679688 200.542969 174.085938 L 179.113281 174.085938 C 175.855469 174.085938 173.203125 176.734375 173.203125 179.988281 L 173.203125 349.921875 L 165.21875 366.160156 C 164.3125 368.003906 164.421875 370.140625 165.507812 371.882812 C 166.59375 373.621094 168.472656 374.660156 170.523438 374.660156 L 360.578125 374.660156 C 362.632812 374.660156 364.507812 373.621094 365.59375 371.882812 C 366.683594 370.140625 366.789062 368.003906 365.886719 366.160156 Z M 309.074219 80.976562 C 319.851562 116.363281 327.191406 156.886719 327.605469 174.089844 L 312.742188 174.089844 C 312.445312 156.707031 307.132812 115.84375 299.328125 80.230469 C 294.707031 59.132812 289.789062 42.234375 284.714844 30 C 282.300781 24.183594 279.890625 19.515625 277.46875 15.960938 C 288.117188 25.691406 299.015625 47.941406 309.074219 80.976562 Z M 265.539062 10.386719 C 265.542969 10.386719 265.546875 10.386719 265.550781 10.386719 C 265.558594 10.386719 265.5625 10.386719 265.566406 10.386719 C 274.894531 10.410156 285.523438 33.632812 294.976562 74.382812 C 287.109375 47.476562 277.03125 25.996094 265.550781 25.996094 C 254.074219 25.996094 243.992188 47.476562 236.125 74.382812 C 245.578125 33.632812 256.210938 10.410156 265.539062 10.386719 Z M 234.652344 91.480469 C 244.453125 51.738281 255.714844 28.945312 265.550781 28.945312 C 275.390625 28.945312 286.652344 51.738281 296.449219 91.480469 C 304.179688 122.820312 309.449219 158.699219 309.78125 174.089844 L 221.320312 174.089844 C 221.652344 158.699219 226.925781 122.820312 234.652344 91.480469 Z M 222.027344 80.976562 C 232.085938 47.941406 242.984375 25.691406 253.636719 15.960938 C 251.210938 19.515625 248.800781 24.183594 246.386719 30 C 241.316406 42.230469 236.398438 59.132812 231.777344 80.230469 C 223.972656 115.84375 218.660156 156.707031 218.363281 174.085938 L 203.5 174.085938 C 203.914062 156.886719 211.253906 116.363281 222.027344 80.976562 Z M 363.085938 370.320312 C 362.535156 371.203125 361.621094 371.710938 360.578125 371.710938 L 170.523438 371.710938 C 169.484375 371.710938 168.570312 371.203125 168.015625 370.320312 C 167.464844 369.4375 167.414062 368.394531 167.871094 367.460938 L 176.007812 350.914062 C 176.109375 350.710938 176.160156 350.488281 176.160156 350.261719 L 176.160156 179.988281 C 176.160156 178.359375 177.484375 177.035156 179.113281 177.035156 L 351.988281 177.035156 C 353.621094 177.035156 354.945312 178.359375 354.945312 179.988281 L 354.945312 350.261719 C 354.945312 350.488281 354.996094 350.710938 355.09375 350.914062 L 363.230469 367.460938 C 363.691406 368.394531 363.640625 369.4375 363.085938 370.320312 Z M 363.085938 370.320312 " fill-opacity="1" fill-rule="nonzero"/></g><g clip-path="url(#e45187d04e)"><path fill="#000000" d="M 163.496094 367.734375 L 157.019531 354.542969 L 157.019531 216.511719 C 157.019531 213.871094 154.867188 211.722656 152.226562 211.722656 L 134.84375 211.722656 C 134.511719 197.582031 128.515625 164.347656 119.710938 135.394531 C 111.53125 108.5 98.386719 76.449219 82.183594 76.359375 C 82.160156 76.359375 82.140625 76.359375 82.117188 76.359375 C 82.09375 76.359375 82.070312 76.359375 82.046875 76.359375 C 65.84375 76.449219 52.699219 108.5 44.519531 135.394531 C 35.714844 164.347656 29.71875 197.582031 29.386719 211.722656 L 12.003906 211.722656 C 9.363281 211.722656 7.210938 213.871094 7.210938 216.511719 L 7.210938 354.542969 L 0.734375 367.734375 C 0 369.230469 0.0859375 370.964844 0.96875 372.378906 C 1.851562 373.792969 3.371094 374.636719 5.039062 374.636719 L 159.191406 374.636719 C 160.859375 374.636719 162.378906 373.792969 163.261719 372.378906 C 164.144531 370.964844 164.230469 369.230469 163.496094 367.734375 Z M 117.417969 136.089844 C 126.15625 164.835938 132.113281 197.75 132.449219 211.722656 L 120.390625 211.722656 C 120.152344 197.605469 115.839844 164.414062 109.511719 135.488281 C 105.761719 118.347656 101.773438 104.621094 97.660156 94.6875 C 95.703125 89.960938 93.746094 86.167969 91.78125 83.285156 C 100.417969 91.1875 109.257812 109.261719 117.417969 136.089844 Z M 82.105469 78.753906 C 82.109375 78.753906 82.109375 78.753906 82.117188 78.753906 C 82.121094 78.753906 82.121094 78.753906 82.125 78.753906 C 89.695312 78.773438 98.316406 97.636719 105.984375 130.738281 C 99.601562 108.882812 91.425781 91.433594 82.117188 91.433594 C 72.804688 91.433594 64.628906 108.882812 58.246094 130.738281 C 65.914062 97.636719 74.539062 78.773438 82.105469 78.753906 Z M 57.054688 144.625 C 65 112.34375 74.136719 93.828125 82.117188 93.828125 C 90.09375 93.828125 99.230469 112.34375 107.175781 144.625 C 113.445312 170.082031 117.722656 199.222656 117.992188 211.722656 L 46.238281 211.722656 C 46.507812 199.222656 50.785156 170.082031 57.054688 144.625 Z M 46.8125 136.089844 C 54.972656 109.261719 63.8125 91.1875 72.449219 83.285156 C 70.484375 86.167969 68.53125 89.960938 66.570312 94.6875 C 62.457031 104.621094 58.46875 118.347656 54.71875 135.488281 C 48.390625 164.410156 44.082031 197.605469 43.839844 211.722656 L 31.785156 211.722656 C 32.117188 197.75 38.074219 164.835938 46.8125 136.089844 Z M 161.226562 371.113281 C 160.78125 371.828125 160.039062 372.242188 159.191406 372.242188 L 5.039062 372.242188 C 4.191406 372.242188 3.449219 371.828125 3.003906 371.113281 C 2.554688 370.394531 2.511719 369.546875 2.886719 368.789062 L 9.484375 355.347656 C 9.566406 355.183594 9.609375 355.003906 9.609375 354.820312 L 9.609375 216.511719 C 9.609375 215.191406 10.683594 214.117188 12.003906 214.117188 L 152.226562 214.117188 C 153.546875 214.117188 154.621094 215.191406 154.621094 216.511719 L 154.621094 354.820312 C 154.621094 355.003906 154.664062 355.183594 154.746094 355.347656 L 161.34375 368.789062 C 161.71875 369.546875 161.675781 370.394531 161.226562 371.113281 Z M 161.226562 371.113281 " fill-opacity="1" fill-rule="nonzero"/></g></svg>