<svg xmlns="http://www.w3.org/2000/svg" xmlns:xlink="http://www.w3.org/1999/xlink" width="500" zoomAndPan="magnify" viewBox="0 0 375 374.999991" height="500" preserveAspectRatio="xMidYMid meet" version="1.0"><defs><clipPath id="4b26f6ff75"><path d="M 9 26 L 371.492188 26 L 371.492188 369 L 9 369 Z M 9 26 " clip-rule="nonzero"/></clipPath></defs><g clip-path="url(#4b26f6ff75)"><path fill="#000000" d="M 298.300781 77.222656 C 303.792969 67.753906 295.675781 62.898438 289.066406 57.09375 C 283.632812 52.332031 275.789062 44.21875 268.589844 49.363281 C 270.027344 54.925781 276.023438 60.496094 279.863281 64.136719 C 285.472656 69.460938 291.492188 73.792969 298.300781 77.222656 Z M 317.707031 99.636719 C 314.582031 93.394531 307.503906 82.628906 303.816406 82.085938 C 303.601562 84.171875 301.496094 86.175781 298.960938 85.078125 C 288.488281 80.496094 279.535156 73.996094 271.839844 65.539062 C 267.480469 60.707031 262.710938 55.75 261.589844 49.175781 C 261.179688 48.339844 261.144531 47.375 261.746094 46.445312 C 256.832031 42.15625 251.449219 38.199219 245.371094 35.949219 C 254.144531 50.957031 266.035156 63.394531 279.214844 74.855469 C 290.714844 84.867188 302.859375 95.398438 317.707031 99.636719 Z M 304.992188 121.605469 C 308.410156 116.234375 312.320312 111.335938 316.550781 106.363281 C 315.125 105.976562 313.734375 105.574219 312.355469 105.078125 C 305.160156 113.324219 302.53125 115.199219 301.835938 114.585938 C 301.164062 114.007812 302.507812 111.324219 308.976562 103.785156 C 308.070312 103.394531 307.171875 103.007812 306.300781 102.605469 C 299.503906 110.6875 296.839844 112.746094 296.167969 112.160156 C 295.507812 111.582031 296.957031 108.695312 303.179688 101.027344 C 301.753906 100.273438 300.363281 99.484375 298.972656 98.671875 C 297.605469 100.34375 296.382812 101.78125 295.308594 103.019531 C 293.8125 104.773438 292.574219 106.152344 291.597656 107.128906 C 289.644531 109.109375 288.6875 109.660156 288.324219 109.34375 C 287.96875 109.027344 288.289062 107.929688 289.726562 105.585938 C 290.46875 104.433594 291.445312 102.960938 292.8125 101.109375 C 293.742188 99.875 294.828125 98.4375 296.085938 96.859375 C 294.226562 95.632812 293.625 94.429688 291.761719 95.773438 C 290.46875 96.667969 289.476562 98.257812 288.488281 99.460938 C 287.722656 100.414062 284.246094 105.550781 282.5625 104.125 C 281.867188 103.511719 283.386719 100.554688 290.054688 92.640625 C 288.851562 91.734375 287.652344 90.804688 286.472656 89.871094 C 285.4375 91.34375 284.472656 92.617188 283.65625 93.6875 C 282.410156 95.136719 281.359375 96.175781 280.523438 96.953125 C 278.863281 98.496094 277.992188 98.859375 277.636719 98.542969 C 277.296875 98.246094 277.507812 97.304688 278.675781 95.410156 C 279.238281 94.453125 280.078125 93.289062 281.148438 91.78125 C 281.890625 90.613281 282.773438 89.285156 283.847656 87.742188 C 283.023438 87.082031 282.242188 86.433594 281.464844 85.796875 C 274.832031 93.277344 272.382812 94.996094 271.710938 94.40625 C 271.027344 93.820312 272.382812 91.144531 278.886719 83.570312 C 277.71875 82.59375 276.578125 81.59375 275.445312 80.613281 C 268.765625 88.140625 265.632812 90.636719 264.972656 90.050781 C 264.277344 89.449219 266.316406 86.007812 272.890625 78.363281 C 271.746094 77.339844 270.617188 76.328125 269.507812 75.3125 C 268.25 76.761719 266.824219 78.328125 265.855469 79.378906 C 264.523438 80.695312 263.242188 81.898438 262.382812 82.605469 C 260.648438 84.007812 259.765625 84.324219 259.449219 83.984375 C 259.128906 83.640625 259.472656 82.628906 260.730469 80.828125 C 261.34375 79.917969 262.335938 78.71875 263.464844 77.304688 C 264.371094 76.164062 265.75 74.5 267.023438 72.980469 C 265.960938 71.980469 264.902344 70.957031 263.855469 69.941406 C 261.875 72.003906 260.191406 73.699219 258.765625 75.054688 C 257.363281 76.574219 256.253906 77.742188 255.335938 78.601562 C 253.511719 80.296875 252.578125 80.757812 252.226562 80.472656 C 251.859375 80.15625 252.121094 79.175781 253.488281 77.058594 C 254.167969 75.984375 255.101562 74.632812 256.417969 72.980469 C 257.75 71.460938 259.414062 69.648438 261.4375 67.527344 C 259.613281 65.679688 257.820312 63.78125 256.101562 61.863281 C 249.703125 69.105469 248.03125 71.472656 247.136719 71.027344 C 246.734375 70.792969 246.84375 69.800781 247.914062 67.5625 C 248.890625 65.679688 250.765625 62.910156 253.828125 59.28125 C 252.402344 57.621094 251.023438 55.972656 249.679688 54.253906 C 241.058594 63.996094 238.902344 65.359375 238.242188 64.796875 C 237.582031 64.21875 238.6875 61.828125 247.546875 51.507812 C 246.535156 50.144531 245.546875 48.765625 244.589844 47.363281 C 243.859375 48.128906 243.191406 48.859375 242.578125 49.542969 C 241.621094 50.636719 240.773438 51.601562 239.984375 52.488281 C 238.324219 54.230469 237.027344 55.609375 235.875 56.492188 C 233.503906 58.234375 232.457031 58.613281 232.152344 58.234375 C 231.867188 57.871094 232.398438 56.808594 234.164062 54.773438 C 235.050781 53.734375 236.109375 52.238281 237.59375 50.460938 C 238.3125 49.519531 239.125 48.515625 240.03125 47.375 C 240.84375 46.480469 241.707031 45.488281 242.625 44.453125 C 241.835938 43.226562 241.070312 41.992188 240.328125 40.742188 C 239.914062 41.285156 239.417969 41.886719 239.101562 42.320312 C 238.394531 43.371094 238.089844 43.96875 237.511719 44.796875 C 236.296875 46.503906 235.378906 47.882812 234.460938 48.824219 C 232.609375 50.648438 231.703125 51.097656 231.386719 50.777344 C 231.019531 50.472656 231.207031 49.519531 232.433594 47.492188 C 233.023438 46.46875 233.648438 45.101562 234.695312 43.335938 C 235.214844 42.425781 235.648438 41.613281 236.296875 40.496094 C 236.898438 39.589844 238.078125 38.128906 238.453125 37.515625 C 238.089844 36.867188 237.746094 36.195312 237.371094 35.523438 C 232.679688 40.953125 228.488281 45.972656 224.503906 51.554688 C 227.320312 61.226562 234.011719 67.765625 241.492188 74.417969 C 248.398438 80.578125 254.300781 87.636719 260.921875 94.113281 C 272.617188 105.585938 289.617188 115.128906 304.992188 121.605469 Z M 292.46875 136.882812 C 292.492188 136.753906 292.539062 136.613281 292.5625 136.480469 C 281.242188 133.855469 269.320312 123.914062 261.792969 118.238281 C 251.800781 110.722656 242.507812 102.277344 233.976562 93.136719 C 230.089844 88.953125 224.71875 84.21875 222.125 79.105469 C 219.828125 74.546875 216.164062 70.695312 214.136719 65.984375 C 213.371094 64.242188 213.253906 61.78125 211.523438 60.765625 C 210.402344 60.121094 208.023438 60.179688 207.503906 61.746094 C 206.949219 63.558594 208.988281 65.609375 209.917969 66.855469 C 211.390625 68.871094 212.570312 71.121094 213.9375 73.21875 C 216.824219 77.621094 220.121094 81.757812 223.609375 85.667969 C 230.5 93.347656 238.242188 100.167969 246.003906 106.929688 C 258.632812 117.929688 274.785156 134.210938 292.46875 136.882812 Z M 302.261719 129.4375 C 302.367188 129.378906 302.460938 129.34375 302.554688 129.296875 C 302.507812 128.933594 302.449219 128.578125 302.367188 128.238281 C 302.320312 128.109375 302.332031 128 302.308594 127.882812 C 283.457031 119.957031 264.84375 108.4375 250.953125 93.523438 C 244.921875 87.035156 237.996094 81.460938 231.796875 75.113281 C 228.734375 71.957031 225.824219 68.660156 223.375 64.996094 C 222.242188 63.253906 221.21875 61.484375 220.441406 59.578125 C 219.992188 58.492188 219.4375 56.292969 217.707031 56.5625 C 215.90625 56.867188 215.785156 58.246094 216.480469 59.941406 C 217.683594 63.015625 221.347656 67.164062 222.03125 68.09375 C 225.363281 72.675781 228.839844 77.128906 232.480469 81.460938 C 239.761719 90.085938 247.726562 98.175781 256.457031 105.375 C 264.253906 111.804688 272.453125 117.375 280.984375 122.796875 C 286.472656 126.316406 295.449219 133.207031 302.261719 129.4375 Z M 295.214844 159.015625 C 294.804688 153.914062 293.859375 148.839844 293.128906 143.761719 C 276.070312 141.535156 260.390625 128.4375 247.949219 117.636719 C 232.128906 103.914062 215.726562 90.578125 205.3125 72.226562 C 200.023438 71.355469 195.3125 67.835938 190.210938 68.292969 C 192.976562 79.128906 204.277344 88.152344 211.5 96.09375 C 220.109375 105.539062 229.242188 114.195312 238.675781 122.796875 C 248.253906 131.523438 257.878906 142.054688 269.734375 147.671875 C 277.296875 151.265625 286.671875 156.824219 295.214844 159.015625 Z M 259.152344 211.574219 C 269.542969 199.949219 277.992188 187.15625 287.746094 175.105469 C 290.230469 172.054688 293.496094 169.371094 295.449219 166.058594 C 290.335938 164.835938 286.167969 162.054688 281.195312 160.015625 C 273.820312 157.023438 266.65625 154.082031 259.941406 149.757812 C 248.289062 142.207031 238.125 131.769531 227.945312 122.394531 C 217.046875 112.347656 207.445312 101.261719 197.324219 90.507812 C 191.765625 84.585938 186.523438 78.730469 184.046875 71.15625 C 140.964844 113.691406 101.296875 159.722656 61.476562 205.285156 C 52.265625 215.835938 43.179688 226.554688 33.921875 237.0625 C 26.523438 245.472656 16.449219 256.039062 15.71875 267.839844 C 14.847656 281.730469 23.507812 294.191406 32.140625 304.25 C 41.566406 315.226562 50.78125 327.03125 61.820312 336.417969 C 73.976562 346.75 85.757812 357.609375 101.792969 360.292969 C 108.980469 361.507812 115.1875 362.484375 121.171875 357.539062 C 125.34375 354.097656 129.960938 351.308594 134.261719 348.03125 C 158.257812 329.726562 176.109375 301.976562 195.535156 279.171875 C 215.621094 255.542969 238.523438 234.660156 259.152344 211.574219 Z M 335.578125 137.765625 C 344.25 134.738281 356.242188 128.097656 354.121094 116.894531 C 351.683594 103.773438 335.367188 99.074219 322.394531 93.652344 C 324.386719 97.457031 325.726562 100.933594 326.070312 102.960938 C 326.082031 103.195312 326.09375 103.417969 326.09375 103.617188 C 326.339844 104.5625 326.175781 105.644531 325.304688 106.644531 C 319.34375 113.5 314.40625 119.109375 310.1875 125.988281 C 309.894531 126.503906 309.480469 126.871094 309.070312 127.140625 C 309.660156 130.203125 309.386719 133.289062 308.328125 135.953125 C 317.351562 139.558594 325.894531 141.136719 335.578125 137.765625 Z M 351 144.550781 C 363.15625 136 369.484375 118.660156 358.988281 106.246094 C 347.6875 92.898438 330.039062 86.761719 313.546875 80.839844 C 314.078125 81.425781 314.628906 82.050781 315.171875 82.675781 C 315.65625 82.769531 316.160156 82.96875 316.644531 83.300781 C 330.78125 93.183594 369.953125 99.425781 359.988281 125.574219 C 356.054688 135.917969 345.769531 142.441406 335.304688 144.929688 C 325.339844 147.285156 317.175781 146.351562 308.292969 143.195312 C 308.199219 143.335938 308.117188 143.503906 308.007812 143.65625 C 321.238281 150.851562 338.203125 153.539062 351 144.550781 Z M 371.191406 121.191406 C 371.425781 137.390625 358.019531 152.277344 342.46875 155.410156 C 327.953125 158.320312 314.3125 155.585938 302.226562 148.191406 C 303.308594 156.847656 306.75 166.1875 299.398438 172.726562 C 287.816406 183.019531 280.417969 197.699219 270.226562 209.335938 C 245.96875 237.074219 218.671875 261.847656 195.144531 290.246094 C 183.199219 304.664062 171.582031 319.398438 158.917969 333.226562 C 153.3125 339.363281 147.679688 345.523438 141.449219 351.023438 C 137.007812 354.933594 131.703125 357.644531 127.15625 361.390625 C 117.695312 369.210938 112.335938 368.976562 100.542969 366.996094 C 94.148438 365.925781 88.386719 364.734375 82.683594 361.671875 C 76.992188 358.585938 72.789062 353.0625 67.484375 349.386719 C 52.464844 338.902344 41.074219 324.640625 29.042969 311.023438 C 21.917969 302.953125 14.410156 293.683594 11.160156 283.238281 C 3.265625 257.96875 21.84375 241.5625 36.726562 223.730469 C 82.882812 168.425781 131.046875 113.429688 182.5625 63.027344 C 183.648438 61.957031 184.980469 61.816406 186.109375 62.203125 C 189.539062 60.96875 193.015625 60.957031 196.558594 62.144531 C 198.445312 62.78125 200.234375 63.59375 202.050781 64.265625 C 201.34375 60.96875 201.671875 57.644531 204.511719 55.171875 C 208.046875 52.132812 213.488281 52.511719 217.859375 52.957031 C 217.742188 52.570312 217.613281 52.203125 217.53125 51.816406 C 217.234375 50.425781 217.695312 49.269531 218.472656 48.46875 C 218.601562 48.199219 218.730469 47.917969 218.933594 47.609375 C 223.761719 40.8125 234.882812 28 234.882812 28 C 236.273438 26.394531 238.148438 26.527344 239.417969 27.457031 C 250.199219 28.726562 259.53125 35.253906 267.410156 42.34375 C 276.023438 38.480469 284.519531 44.042969 292.09375 50.683594 C 299.246094 56.960938 307.042969 62.96875 307.136719 71.238281 C 330.5 80.261719 370.753906 90.378906 371.191406 121.191406 " fill-opacity="1" fill-rule="nonzero"/></g><path fill="#000000" d="M 273.054688 187.496094 C 265.136719 196.875 257.890625 203.539062 257.113281 202.902344 C 256.277344 202.171875 262.320312 194.269531 270.097656 185.046875 C 273.925781 180.40625 277.355469 176.152344 279.746094 173.089844 C 282.171875 169.957031 283.765625 167.96875 284.246094 168.273438 C 284.648438 168.53125 283.953125 170.9375 282.066406 174.503906 C 280.136719 178.15625 276.964844 182.738281 273.054688 187.496094 " fill-opacity="1" fill-rule="nonzero"/><path fill="#000000" d="M 188.535156 276.371094 C 189.316406 277.039062 178.570312 290.941406 164.019531 307.113281 C 149.269531 323.238281 135.652344 334.25 134.96875 333.648438 C 134.121094 332.789062 146.703125 320.375 161.179688 304.519531 C 175.636719 288.453125 187.710938 275.652344 188.535156 276.371094 " fill-opacity="1" fill-rule="nonzero"/><path fill="#000000" d="M 236.074219 221.726562 C 236.804688 222.632812 229.757812 229.785156 221.03125 238.722656 C 212.15625 247.804688 203.898438 253.71875 203.226562 253.011719 C 202.472656 252.175781 209.648438 244.871094 218.308594 236.027344 C 227.074219 227.027344 235.472656 220.960938 236.074219 221.726562 " fill-opacity="1" fill-rule="nonzero"/><path fill="#000000" d="M 121.9375 348.632812 C 122.019531 348.878906 121.136719 349.410156 119.40625 350.164062 C 118.558594 350.542969 117.496094 351 116.175781 351.273438 C 114.871094 351.519531 113.398438 352.039062 111.710938 352.085938 C 110.851562 352.15625 109.957031 352.214844 109.050781 352.296875 C 108.117188 352.367188 107.164062 352.25 106.175781 352.203125 C 104.148438 352.191406 102.0625 351.730469 99.847656 351.34375 C 95.488281 350.292969 90.882812 348.492188 86.417969 345.984375 C 77.511719 340.882812 70.832031 334.476562 66.4375 329.597656 C 62.019531 324.675781 59.828125 321.257812 60.203125 320.929688 C 60.617188 320.527344 63.574219 323.367188 68.347656 327.679688 C 73.152344 331.976562 79.890625 337.832031 88.292969 342.648438 C 92.507812 344.992188 96.75 346.75 100.71875 347.914062 C 102.710938 348.363281 104.621094 348.902344 106.457031 349.046875 C 107.363281 349.140625 108.25 349.339844 109.097656 349.328125 C 109.957031 349.351562 110.78125 349.375 111.546875 349.386719 C 113.125 349.515625 114.539062 349.210938 115.789062 349.152344 C 117.050781 349.117188 118.121094 348.890625 118.992188 348.726562 C 120.773438 348.433594 121.820312 348.386719 121.9375 348.632812 " fill-opacity="1" fill-rule="nonzero"/><path fill="#000000" d="M 217.566406 119.792969 C 230.078125 131.746094 240.222656 141.546875 239.480469 142.40625 C 238.855469 143.148438 227.519531 134.621094 214.890625 122.523438 C 202.355469 110.261719 193.910156 99.035156 194.546875 98.296875 C 195.40625 97.492188 205.242188 107.753906 217.566406 119.792969 " fill-opacity="1" fill-rule="nonzero"/><path fill="#000000" d="M 43.863281 300.421875 C 47.882812 306.207031 50.414062 309.796875 49.992188 310.175781 C 49.613281 310.480469 46.339844 307.511719 41.695312 302.058594 C 39.410156 299.316406 36.796875 295.921875 34.25 291.859375 C 31.730469 287.792969 29.316406 283.035156 27.773438 277.570312 C 27.335938 276.226562 27.125 274.851562 26.839844 273.484375 C 26.652344 272.117188 26.464844 270.621094 26.429688 269.359375 C 26.40625 268.714844 26.417969 268.089844 26.40625 267.441406 L 26.40625 266.992188 L 26.394531 266.863281 L 26.40625 266.722656 L 26.417969 266.664062 L 26.429688 266.417969 L 26.523438 265.4375 C 26.6875 264.144531 26.734375 262.882812 27.066406 261.65625 C 28.078125 256.792969 30.128906 252.800781 32.082031 249.773438 C 36.078125 243.730469 39.140625 240.585938 39.527344 240.832031 C 40.023438 241.160156 37.691406 244.988281 34.429688 251.113281 C 32.835938 254.191406 31.246094 257.957031 30.539062 262.304688 C 30.257812 263.390625 30.292969 264.53125 30.1875 265.6875 L 30.128906 266.558594 L 30.09375 266.769531 L 30.105469 266.816406 L 30.117188 266.910156 L 30.117188 267.394531 C 30.128906 268.007812 30.152344 268.628906 30.164062 269.277344 C 30.257812 270.527344 30.433594 271.609375 30.609375 272.847656 C 30.871094 274.074219 31.070312 275.332031 31.484375 276.558594 C 32.847656 281.539062 35.039062 286.0625 37.300781 290.042969 C 39.578125 294.039062 41.898438 297.5 43.863281 300.421875 " fill-opacity="1" fill-rule="nonzero"/><path fill="#000000" d="M 180.171875 80.769531 C 180.972656 81.460938 169.933594 95.445312 155.492188 112.015625 C 140.953125 128.4375 128.5 141.207031 127.710938 140.523438 C 126.910156 139.816406 138.066406 125.917969 152.605469 109.484375 C 167.023438 92.9375 179.371094 80.097656 180.171875 80.769531 " fill-opacity="1" fill-rule="nonzero"/><path fill="#000000" d="M 82.152344 190.972656 C 82.953125 191.679688 74.882812 202.269531 64.128906 214.625 C 53.359375 227.003906 43.996094 236.460938 43.179688 235.765625 C 42.390625 235.070312 50.460938 224.484375 61.230469 212.101562 C 71.984375 199.746094 81.363281 190.289062 82.152344 190.972656 " fill-opacity="1" fill-rule="nonzero"/></svg>