<svg xmlns="http://www.w3.org/2000/svg" xmlns:xlink="http://www.w3.org/1999/xlink" width="1920" zoomAndPan="magnify" viewBox="0 0 1440 809.999993" height="1080" preserveAspectRatio="xMidYMid meet" version="1.0"><defs><g/><clipPath id="13b7eb9fe8"><path d="M 16 47.902344 L 492 47.902344 L 492 728.902344 L 16 728.902344 Z M 16 47.902344 " clip-rule="nonzero"/></clipPath><clipPath id="c0031462a3"><path d="M 517.035156 495.152344 L 1025.578125 495.152344 L 1025.578125 592.789062 L 517.035156 592.789062 Z M 517.035156 495.152344 " clip-rule="nonzero"/></clipPath></defs><path fill="#3ed178" d="M 218.484375 507.28125 C 233.359375 491.167969 257.996094 459.019531 255.195312 435.972656 C 254.511719 430.320312 258.539062 425.179688 264.195312 424.484375 C 269.839844 423.800781 275 427.820312 275.683594 433.496094 C 279.335938 463.558594 254.808594 497.128906 239.097656 515.210938 C 260.578125 516.492188 284.660156 500.546875 297.882812 474.148438 C 306.003906 457.933594 308.769531 440.367188 305.675781 424.6875 C 302.773438 409.972656 294.996094 398.765625 283.769531 393.148438 C 278.445312 390.484375 272.695312 389.222656 266.796875 389.222656 C 245.949219 389.222656 223.175781 404.964844 210.457031 430.359375 C 202.328125 446.585938 199.558594 464.160156 202.652344 479.84375 C 204.984375 491.671875 210.589844 501.066406 218.484375 507.28125 Z M 218.484375 507.28125 " fill-opacity="1" fill-rule="nonzero"/><g clip-path="url(#13b7eb9fe8)"><path fill="#3ed178" d="M 481.042969 123.796875 L 464.992188 123.796875 L 464.992188 84.058594 C 464.992188 81.253906 463.847656 78.566406 461.820312 76.617188 C 459.800781 74.671875 457.023438 73.65625 454.261719 73.75 C 453.652344 73.765625 391.761719 76.125 332.734375 68.445312 C 292.414062 63.203125 234.710938 48.378906 234.136719 48.226562 C 233.292969 48.011719 232.425781 47.902344 231.554688 47.902344 L 53.65625 47.902344 C 47.957031 47.902344 43.339844 52.519531 43.339844 58.21875 L 43.339844 123.796875 L 27.285156 123.796875 C 21.585938 123.796875 16.964844 128.417969 16.964844 134.117188 L 16.964844 184.175781 C 16.964844 189.875 21.585938 194.496094 27.285156 194.496094 L 44.589844 194.496094 L 49.949219 235.878906 C 44.4375 235.492188 41.160156 235.257812 40.949219 235.242188 C 37.902344 235.085938 34.816406 236.203125 32.691406 238.460938 C 30.558594 240.726562 29.5625 243.828125 29.976562 246.90625 L 81.648438 632.320312 C 82.183594 636.308594 84.996094 639.625 88.847656 640.8125 C 89.683594 641.070312 94.878906 642.636719 102.949219 644.863281 L 108.015625 683.9375 C 108.25 685.71875 108.933594 687.363281 109.941406 688.734375 C 119.882812 720.398438 206.875 728.996094 254.164062 728.996094 C 301.453125 728.996094 388.445312 720.398438 398.386719 688.734375 C 399.394531 687.363281 400.078125 685.71875 400.3125 683.9375 L 405.375 644.863281 C 413.449219 642.636719 418.644531 641.070312 419.480469 640.8125 C 423.335938 639.625 426.144531 636.308594 426.679688 632.320312 L 478.355469 246.90625 C 478.765625 243.828125 477.769531 240.726562 475.636719 238.460938 C 473.511719 236.203125 470.449219 235.085938 467.378906 235.242188 C 467.167969 235.257812 463.890625 235.492188 458.375 235.878906 L 463.738281 194.496094 L 481.042969 194.496094 C 486.742188 194.496094 491.363281 189.875 491.363281 184.175781 L 491.363281 134.117188 C 491.363281 128.417969 486.742188 123.796875 481.042969 123.796875 Z M 380.417969 676.832031 C 379.324219 678.453125 378.683594 680.417969 378.683594 682.546875 C 377.242188 689.652344 336.773438 708.355469 254.164062 708.355469 C 171.558594 708.355469 131.085938 689.652344 129.648438 682.605469 C 129.648438 680.492188 129.007812 678.515625 127.914062 676.882812 L 124.492188 650.480469 C 158.050781 658.753906 209.601562 669.3125 254.164062 669.3125 C 298.726562 669.3125 350.273438 658.753906 383.832031 650.480469 Z M 192.003906 421.109375 C 213.421875 378.351562 258.738281 357.519531 293.007812 374.695312 C 310.070312 383.238281 321.753906 399.574219 325.929688 420.6875 C 329.902344 440.839844 326.496094 463.101562 316.332031 483.398438 C 300.007812 515.992188 269.792969 535.84375 241.175781 535.84375 C 232.511719 535.84375 224.007812 533.992188 216.0625 530.15625 C 216.015625 530.136719 215.972656 530.117188 215.929688 530.097656 C 215.726562 530.003906 215.519531 529.9375 215.320312 529.839844 C 198.257812 521.292969 186.566406 504.957031 182.40625 483.832031 C 178.429688 463.6875 181.839844 441.417969 192.003906 421.109375 Z M 437.378906 237.3125 C 390.621094 240.433594 300.894531 245.984375 254.164062 245.984375 C 207.4375 245.984375 117.703125 240.433594 70.945312 237.3125 L 65.398438 194.496094 L 442.925781 194.496094 Z M 444.351562 123.796875 L 63.976562 123.796875 L 63.976562 68.539062 L 230.253906 68.539062 C 239.273438 70.835938 291.382812 83.882812 330.074219 88.910156 C 376.667969 94.96875 423.726562 94.988281 444.351562 94.652344 Z M 444.351562 123.796875 " fill-opacity="1" fill-rule="nonzero"/></g><g fill="#3ed178" fill-opacity="1"><g transform="translate(516.806356, 265.7789)"><g><path d="M -9.640625 18.09375 C -11.554688 18.09375 -13.039062 17.890625 -14.09375 17.484375 C -15.144531 17.078125 -15.671875 16.171875 -15.671875 14.765625 C -15.671875 13.160156 -14.941406 11.601562 -13.484375 10.09375 C -12.035156 8.59375 -10.003906 7.84375 -7.390625 7.84375 C -5.273438 7.84375 -3.132812 8.015625 -0.96875 8.359375 C 1.1875 8.710938 4.070312 9.289062 7.6875 10.09375 C 8.894531 9.289062 10.097656 8.210938 11.296875 6.859375 C 12.503906 5.503906 13.535156 3.414062 14.390625 0.59375 C 15.242188 -2.21875 15.671875 -6.132812 15.671875 -11.15625 L 15.671875 -86.375 C 15.671875 -92.601562 15.242188 -96.847656 14.390625 -99.109375 C 13.535156 -101.367188 11.953125 -102.847656 9.640625 -103.546875 L 9.640625 -105.515625 L 33.921875 -105.515625 L 33.921875 -103.546875 C 31.609375 -102.847656 30.023438 -101.367188 29.171875 -99.109375 C 28.316406 -96.847656 27.890625 -92.601562 27.890625 -86.375 L 27.890625 -29.546875 C 27.890625 -19.898438 26.101562 -11.507812 22.53125 -4.375 C 18.96875 2.757812 14.347656 8.285156 8.671875 12.203125 C 2.992188 16.128906 -3.109375 18.09375 -9.640625 18.09375 Z M -9.640625 18.09375 "/></g></g></g><g fill="#3ed178" fill-opacity="1"><g transform="translate(558.393667, 265.7789)"><g><path d="M 63.15625 0 C 60.144531 0 58.640625 -1.503906 58.640625 -4.515625 L 58.640625 -31.65625 C 57.128906 -25.519531 54.765625 -19.941406 51.546875 -14.921875 C 48.335938 -9.898438 44.597656 -5.90625 40.328125 -2.9375 C 36.054688 0.0195312 31.40625 1.5 26.375 1.5 C 22.65625 1.5 19.1875 0.75 15.96875 -0.75 C 12.757812 -2.257812 10.175781 -4.46875 8.21875 -7.375 C 6.257812 -10.289062 5.28125 -13.910156 5.28125 -18.234375 C 5.28125 -23.460938 6.835938 -27.734375 9.953125 -31.046875 C 13.066406 -34.367188 17.207031 -37.082031 22.375 -39.1875 C 27.550781 -41.300781 33.109375 -43.160156 39.046875 -44.765625 L 58.640625 -50.046875 C 58.234375 -57.378906 56.222656 -62.78125 52.609375 -66.25 C 48.992188 -69.71875 43.96875 -71.453125 37.53125 -71.453125 C 33.007812 -71.453125 28.613281 -70.367188 24.34375 -68.203125 C 20.070312 -66.046875 16.023438 -62.65625 12.203125 -58.03125 L 10.859375 -59.234375 C 15.171875 -64.566406 20.066406 -68.765625 25.546875 -71.828125 C 31.023438 -74.890625 37.03125 -76.421875 43.5625 -76.421875 C 52.707031 -76.421875 59.441406 -74.035156 63.765625 -69.265625 C 68.085938 -64.492188 70.25 -57.835938 70.25 -49.296875 L 70.25 -19.140625 C 70.25 -13.015625 70.675781 -8.796875 71.53125 -6.484375 C 72.382812 -4.171875 73.960938 -2.660156 76.265625 -1.953125 L 76.265625 0 Z M 16.578125 -22.453125 C 16.578125 -17.535156 18.054688 -13.796875 21.015625 -11.234375 C 23.984375 -8.671875 27.628906 -7.390625 31.953125 -7.390625 C 35.972656 -7.390625 39.613281 -8.519531 42.875 -10.78125 C 46.144531 -13.039062 48.9375 -15.976562 51.25 -19.59375 C 53.5625 -23.207031 55.367188 -27.125 56.671875 -31.34375 C 57.984375 -35.570312 58.640625 -39.644531 58.640625 -43.5625 L 58.640625 -48.078125 L 39.640625 -42.953125 C 35.921875 -41.953125 32.273438 -40.625 28.703125 -38.96875 C 25.140625 -37.3125 22.226562 -35.175781 19.96875 -32.5625 C 17.707031 -29.945312 16.578125 -26.578125 16.578125 -22.453125 Z M 16.578125 -22.453125 "/></g></g></g><g fill="#3ed178" fill-opacity="1"><g transform="translate(638.253379, 265.7789)"><g><path d="M 41.15625 1.5 C 35.320312 1.5 29.664062 0.117188 24.1875 -2.640625 C 18.71875 -5.398438 14.222656 -9.539062 10.703125 -15.0625 C 7.179688 -20.59375 5.421875 -27.378906 5.421875 -35.421875 C 5.421875 -43.359375 7.304688 -50.414062 11.078125 -56.59375 C 14.847656 -62.78125 19.847656 -67.628906 26.078125 -71.140625 C 32.304688 -74.660156 39.085938 -76.421875 46.421875 -76.421875 C 51.242188 -76.421875 55.585938 -76.019531 59.453125 -75.21875 C 63.328125 -74.414062 66.394531 -73.410156 68.65625 -72.203125 C 70.914062 -70.992188 72.046875 -69.6875 72.046875 -68.28125 C 72.046875 -66.570312 71.066406 -64.785156 69.109375 -62.921875 C 67.148438 -61.066406 64.96875 -60.140625 62.5625 -60.140625 C 59.039062 -60.140625 51.398438 -64.765625 39.640625 -74.015625 C 32.609375 -72.804688 26.929688 -69.335938 22.609375 -63.609375 C 18.285156 -57.878906 16.125 -50.945312 16.125 -42.8125 C 16.125 -35.976562 17.457031 -29.921875 20.125 -24.640625 C 22.789062 -19.367188 26.554688 -15.273438 31.421875 -12.359375 C 36.296875 -9.441406 42 -7.984375 48.53125 -7.984375 C 54.363281 -7.984375 59.441406 -9.1875 63.765625 -11.59375 C 68.085938 -14.007812 71.957031 -17.179688 75.375 -21.109375 L 76.71875 -19.75 C 74.207031 -16.226562 71.191406 -12.832031 67.671875 -9.5625 C 64.160156 -6.300781 60.21875 -3.640625 55.84375 -1.578125 C 51.476562 0.472656 46.582031 1.5 41.15625 1.5 Z M 41.15625 1.5 "/></g></g></g><g fill="#3ed178" fill-opacity="1"><g transform="translate(717.962415, 265.7789)"><g><path d="M 44.921875 1.5 C 40.097656 1.5 35.347656 0.75 30.671875 -0.75 C 26.003906 -2.257812 21.757812 -4.570312 17.9375 -7.6875 C 14.113281 -10.800781 11.070312 -14.769531 8.8125 -19.59375 C 6.550781 -24.414062 5.421875 -30.09375 5.421875 -36.625 C 5.421875 -44.46875 7.28125 -51.378906 11 -57.359375 C 14.71875 -63.335938 19.59375 -68.007812 25.625 -71.375 C 31.65625 -74.738281 38.085938 -76.421875 44.921875 -76.421875 C 49.640625 -76.421875 54.3125 -75.691406 58.9375 -74.234375 C 63.5625 -72.773438 67.78125 -70.488281 71.59375 -67.375 C 75.414062 -64.257812 78.484375 -60.289062 80.796875 -55.46875 C 83.109375 -50.644531 84.265625 -44.867188 84.265625 -38.140625 C 84.265625 -31.703125 83.082031 -26.019531 80.71875 -21.09375 C 78.351562 -16.175781 75.210938 -12.035156 71.296875 -8.671875 C 67.378906 -5.304688 63.109375 -2.769531 58.484375 -1.0625 C 53.859375 0.644531 49.335938 1.5 44.921875 1.5 Z M 17.03125 -45.21875 C 17.03125 -40.394531 17.785156 -35.445312 19.296875 -30.375 C 20.804688 -25.300781 22.96875 -20.601562 25.78125 -16.28125 C 28.59375 -11.957031 31.984375 -8.4375 35.953125 -5.71875 C 39.921875 -3.007812 44.414062 -1.65625 49.4375 -1.65625 C 54.863281 -1.65625 59.285156 -2.9375 62.703125 -5.5 C 66.117188 -8.0625 68.65625 -11.453125 70.3125 -15.671875 C 71.976562 -19.890625 72.8125 -24.414062 72.8125 -29.25 C 72.8125 -34.070312 72.003906 -39.117188 70.390625 -44.390625 C 68.785156 -49.671875 66.5 -54.570312 63.53125 -59.09375 C 60.570312 -63.613281 57.03125 -67.226562 52.90625 -69.9375 C 48.789062 -72.65625 44.269531 -73.863281 39.34375 -73.5625 C 34.21875 -73.351562 29.992188 -71.941406 26.671875 -69.328125 C 23.359375 -66.722656 20.921875 -63.304688 19.359375 -59.078125 C 17.804688 -54.859375 17.03125 -50.238281 17.03125 -45.21875 Z M 17.03125 -45.21875 "/></g></g></g><g fill="#3ed178" fill-opacity="1"><g transform="translate(808.671025, 265.7789)"><g><path d="M 44.171875 1.359375 C 38.535156 1.359375 33.28125 0.226562 28.40625 -2.03125 C 23.539062 -4.289062 19.75 -6.878906 17.03125 -9.796875 L 12.0625 0 L 10.546875 0 L 10.546875 -99.03125 C 10.546875 -102.550781 10.316406 -105.1875 9.859375 -106.9375 C 9.410156 -108.695312 8.757812 -109.976562 7.90625 -110.78125 C 7.050781 -111.59375 5.921875 -112.300781 4.515625 -112.90625 L 4.515625 -114.5625 L 20.953125 -121.796875 L 22.3125 -120.734375 L 22.3125 -66.171875 C 26.332031 -68.890625 30.726562 -71.273438 35.5 -73.328125 C 40.269531 -75.390625 45.269531 -76.421875 50.5 -76.421875 C 56.925781 -76.421875 62.601562 -74.835938 67.53125 -71.671875 C 72.457031 -68.503906 76.328125 -64.15625 79.140625 -58.625 C 81.953125 -53.101562 83.359375 -46.773438 83.359375 -39.640625 C 83.359375 -32.710938 81.847656 -26.128906 78.828125 -19.890625 C 75.816406 -13.660156 71.394531 -8.585938 65.5625 -4.671875 C 59.738281 -0.753906 52.609375 1.253906 44.171875 1.359375 Z M 22.3125 -25.46875 C 22.3125 -21.851562 23.566406 -18.210938 26.078125 -14.546875 C 28.585938 -10.878906 31.878906 -7.8125 35.953125 -5.34375 C 40.023438 -2.882812 44.367188 -1.65625 48.984375 -1.65625 C 56.828125 -1.65625 62.65625 -4.34375 66.46875 -9.71875 C 70.289062 -15.09375 72.203125 -22.15625 72.203125 -30.90625 C 72.203125 -35.125 71.695312 -39.566406 70.6875 -44.234375 C 69.6875 -48.910156 68.054688 -53.304688 65.796875 -57.421875 C 63.535156 -61.546875 60.570312 -64.914062 56.90625 -67.53125 C 53.238281 -70.144531 48.738281 -71.453125 43.40625 -71.453125 C 39.488281 -71.453125 35.769531 -70.722656 32.25 -69.265625 C 28.738281 -67.804688 25.425781 -66.019531 22.3125 -63.90625 Z M 22.3125 -25.46875 "/></g></g></g><g fill="#3ed178" fill-opacity="1"><g transform="translate(898.475527, 265.7789)"><g/></g></g><g fill="#3ed178" fill-opacity="1"><g transform="translate(930.11805, 265.7789)"><g><path d="M 7.6875 0 L 7.6875 -1.953125 C 10 -2.660156 11.582031 -4.171875 12.4375 -6.484375 C 13.289062 -8.796875 13.71875 -13.015625 13.71875 -19.140625 L 13.71875 -86.375 C 13.71875 -92.601562 13.289062 -96.847656 12.4375 -99.109375 C 11.582031 -101.367188 10 -102.847656 7.6875 -103.546875 L 7.6875 -105.515625 L 32.109375 -105.515625 L 32.109375 -103.546875 C 29.796875 -102.847656 28.210938 -101.367188 27.359375 -99.109375 C 26.503906 -96.847656 26.078125 -92.601562 26.078125 -86.375 L 26.078125 -48.078125 L 65.5625 -88.484375 C 70.289062 -93.398438 73.03125 -97.140625 73.78125 -99.703125 C 74.539062 -102.265625 73.460938 -103.75 70.546875 -104.15625 L 70.546875 -105.515625 L 91.5 -105.515625 L 91.5 -103.546875 C 89.082031 -102.847656 86.265625 -101.816406 83.046875 -100.453125 C 79.835938 -99.097656 76.070312 -96.210938 71.75 -91.796875 L 39.640625 -58.9375 L 43.109375 -59.09375 C 48.734375 -59.488281 53.328125 -59.207031 56.890625 -58.25 C 60.460938 -57.300781 63.429688 -55.570312 65.796875 -53.0625 C 68.160156 -50.550781 70.367188 -47.132812 72.421875 -42.8125 C 74.484375 -38.488281 76.769531 -33.113281 79.28125 -26.6875 C 81.894531 -20.25 84.054688 -15.242188 85.765625 -11.671875 C 87.472656 -8.109375 89.054688 -5.625 90.515625 -4.21875 C 91.972656 -2.8125 93.503906 -2.109375 95.109375 -2.109375 C 95.609375 -2.109375 96.0625 -2.109375 96.46875 -2.109375 C 96.875 -2.109375 97.273438 -2.160156 97.671875 -2.265625 L 97.671875 -0.296875 C 96.367188 0.0976562 94.9375 0.367188 93.375 0.515625 C 91.820312 0.671875 90.238281 0.75 88.625 0.75 C 85.007812 0.75 82.097656 -0.0234375 79.890625 -1.578125 C 77.679688 -3.140625 75.695312 -5.703125 73.9375 -9.265625 C 72.175781 -12.835938 70.09375 -17.535156 67.6875 -23.359375 C 65.164062 -29.492188 63.023438 -34.695312 61.265625 -38.96875 C 59.515625 -43.238281 57.734375 -46.675781 55.921875 -49.28125 C 54.109375 -51.894531 51.992188 -53.78125 49.578125 -54.9375 C 47.171875 -56.09375 44.0625 -56.625 40.25 -56.53125 L 37.234375 -56.53125 L 26.078125 -45.0625 L 26.078125 -19.140625 C 26.078125 -13.015625 26.503906 -8.796875 27.359375 -6.484375 C 28.210938 -4.171875 29.796875 -2.660156 32.109375 -1.953125 L 32.109375 0 Z M 7.6875 0 "/></g></g></g><g fill="#3ed178" fill-opacity="1"><g transform="translate(1026.552428, 265.7789)"><g><path d="M 44.921875 1.5 C 40.097656 1.5 35.347656 0.75 30.671875 -0.75 C 26.003906 -2.257812 21.757812 -4.570312 17.9375 -7.6875 C 14.113281 -10.800781 11.070312 -14.769531 8.8125 -19.59375 C 6.550781 -24.414062 5.421875 -30.09375 5.421875 -36.625 C 5.421875 -44.46875 7.28125 -51.378906 11 -57.359375 C 14.71875 -63.335938 19.59375 -68.007812 25.625 -71.375 C 31.65625 -74.738281 38.085938 -76.421875 44.921875 -76.421875 C 49.640625 -76.421875 54.3125 -75.691406 58.9375 -74.234375 C 63.5625 -72.773438 67.78125 -70.488281 71.59375 -67.375 C 75.414062 -64.257812 78.484375 -60.289062 80.796875 -55.46875 C 83.109375 -50.644531 84.265625 -44.867188 84.265625 -38.140625 C 84.265625 -31.703125 83.082031 -26.019531 80.71875 -21.09375 C 78.351562 -16.175781 75.210938 -12.035156 71.296875 -8.671875 C 67.378906 -5.304688 63.109375 -2.769531 58.484375 -1.0625 C 53.859375 0.644531 49.335938 1.5 44.921875 1.5 Z M 17.03125 -45.21875 C 17.03125 -40.394531 17.785156 -35.445312 19.296875 -30.375 C 20.804688 -25.300781 22.96875 -20.601562 25.78125 -16.28125 C 28.59375 -11.957031 31.984375 -8.4375 35.953125 -5.71875 C 39.921875 -3.007812 44.414062 -1.65625 49.4375 -1.65625 C 54.863281 -1.65625 59.285156 -2.9375 62.703125 -5.5 C 66.117188 -8.0625 68.65625 -11.453125 70.3125 -15.671875 C 71.976562 -19.890625 72.8125 -24.414062 72.8125 -29.25 C 72.8125 -34.070312 72.003906 -39.117188 70.390625 -44.390625 C 68.785156 -49.671875 66.5 -54.570312 63.53125 -59.09375 C 60.570312 -63.613281 57.03125 -67.226562 52.90625 -69.9375 C 48.789062 -72.65625 44.269531 -73.863281 39.34375 -73.5625 C 34.21875 -73.351562 29.992188 -71.941406 26.671875 -69.328125 C 23.359375 -66.722656 20.921875 -63.304688 19.359375 -59.078125 C 17.804688 -54.859375 17.03125 -50.238281 17.03125 -45.21875 Z M 17.03125 -45.21875 "/></g></g></g><g fill="#3ed178" fill-opacity="1"><g transform="translate(1117.261038, 265.7789)"><g><path d="M 5.875 0 L 5.875 -1.953125 C 8.1875 -2.660156 9.769531 -4.171875 10.625 -6.484375 C 11.476562 -8.796875 11.90625 -13.015625 11.90625 -19.140625 L 11.90625 -72.203125 L 3.171875 -72.203125 L 3.921875 -74.3125 L 11.90625 -74.3125 C 12.207031 -79.9375 13.640625 -85.335938 16.203125 -90.515625 C 18.765625 -95.691406 22.15625 -100.3125 26.375 -104.375 C 30.59375 -108.445312 35.441406 -111.664062 40.921875 -114.03125 C 46.398438 -116.394531 52.203125 -117.578125 58.328125 -117.578125 C 65.160156 -117.578125 68.578125 -116.269531 68.578125 -113.65625 C 68.578125 -112.75 68.175781 -111.617188 67.375 -110.265625 C 66.570312 -108.910156 65.441406 -107.675781 63.984375 -106.5625 C 62.523438 -105.457031 60.742188 -104.90625 58.640625 -104.90625 C 55.222656 -104.90625 51.804688 -105.382812 48.390625 -106.34375 C 44.972656 -107.300781 41.101562 -108.53125 36.78125 -110.03125 C 35.070312 -109.125 33.1875 -107.789062 31.125 -106.03125 C 29.0625 -104.28125 27.300781 -101.644531 25.84375 -98.125 C 24.394531 -94.613281 23.671875 -89.691406 23.671875 -83.359375 L 23.671875 -74.3125 L 43.40625 -74.3125 L 42.5 -72.203125 L 23.671875 -72.203125 L 23.671875 -19.140625 C 23.671875 -13.015625 24.097656 -8.796875 24.953125 -6.484375 C 25.804688 -4.171875 27.382812 -2.660156 29.6875 -1.953125 L 29.6875 0 Z M 5.875 0 "/></g></g></g><g fill="#3ed178" fill-opacity="1"><g transform="translate(1163.067368, 265.7789)"><g><path d="M 5.875 0 L 5.875 -1.953125 C 8.1875 -2.660156 9.769531 -4.171875 10.625 -6.484375 C 11.476562 -8.796875 11.90625 -13.015625 11.90625 -19.140625 L 11.90625 -72.203125 L 3.171875 -72.203125 L 3.921875 -74.3125 L 11.90625 -74.3125 C 12.207031 -79.9375 13.640625 -85.335938 16.203125 -90.515625 C 18.765625 -95.691406 22.15625 -100.3125 26.375 -104.375 C 30.59375 -108.445312 35.441406 -111.664062 40.921875 -114.03125 C 46.398438 -116.394531 52.203125 -117.578125 58.328125 -117.578125 C 65.160156 -117.578125 68.578125 -116.269531 68.578125 -113.65625 C 68.578125 -112.75 68.175781 -111.617188 67.375 -110.265625 C 66.570312 -108.910156 65.441406 -107.675781 63.984375 -106.5625 C 62.523438 -105.457031 60.742188 -104.90625 58.640625 -104.90625 C 55.222656 -104.90625 51.804688 -105.382812 48.390625 -106.34375 C 44.972656 -107.300781 41.101562 -108.53125 36.78125 -110.03125 C 35.070312 -109.125 33.1875 -107.789062 31.125 -106.03125 C 29.0625 -104.28125 27.300781 -101.644531 25.84375 -98.125 C 24.394531 -94.613281 23.671875 -89.691406 23.671875 -83.359375 L 23.671875 -74.3125 L 43.40625 -74.3125 L 42.5 -72.203125 L 23.671875 -72.203125 L 23.671875 -19.140625 C 23.671875 -13.015625 24.097656 -8.796875 24.953125 -6.484375 C 25.804688 -4.171875 27.382812 -2.660156 29.6875 -1.953125 L 29.6875 0 Z M 5.875 0 "/></g></g></g><g fill="#3ed178" fill-opacity="1"><g transform="translate(1208.873699, 265.7789)"><g><path d="M 4.828125 0 L 4.828125 -1.953125 C 7.140625 -2.660156 8.722656 -4.171875 9.578125 -6.484375 C 10.429688 -8.796875 10.859375 -13.015625 10.859375 -19.140625 L 10.859375 -53.8125 C 10.859375 -57.332031 10.65625 -59.96875 10.25 -61.71875 C 9.84375 -63.476562 9.1875 -64.757812 8.28125 -65.5625 C 7.382812 -66.375 6.234375 -67.082031 4.828125 -67.6875 L 4.828125 -69.34375 L 21.40625 -76.578125 L 22.609375 -75.515625 L 22.609375 -19.140625 C 22.609375 -13.015625 23.0625 -8.796875 23.96875 -6.484375 C 24.875 -4.171875 26.429688 -2.660156 28.640625 -1.953125 L 28.640625 0 Z M 7.53125 -94.0625 C 7.53125 -96.46875 8.332031 -98.472656 9.9375 -100.078125 C 11.550781 -101.691406 13.515625 -102.5 15.828125 -102.5 C 18.234375 -102.5 20.21875 -101.691406 21.78125 -100.078125 C 23.34375 -98.472656 24.125 -96.46875 24.125 -94.0625 C 24.125 -91.84375 23.316406 -89.90625 21.703125 -88.25 C 20.097656 -86.59375 18.140625 -85.765625 15.828125 -85.765625 C 13.515625 -85.765625 11.550781 -86.59375 9.9375 -88.25 C 8.332031 -89.90625 7.53125 -91.84375 7.53125 -94.0625 Z M 7.53125 -94.0625 "/></g></g></g><g fill="#3ed178" fill-opacity="1"><g transform="translate(1242.776406, 265.7789)"><g><path d="M 41.15625 1.5 C 37.03125 1.5 32.859375 0.75 28.640625 -0.75 C 24.421875 -2.257812 20.550781 -4.546875 17.03125 -7.609375 C 13.507812 -10.671875 10.691406 -14.515625 8.578125 -19.140625 C 6.472656 -23.765625 5.421875 -29.191406 5.421875 -35.421875 C 5.421875 -43.660156 7.253906 -50.84375 10.921875 -56.96875 C 14.597656 -63.101562 19.445312 -67.878906 25.46875 -71.296875 C 31.5 -74.710938 38.03125 -76.421875 45.0625 -76.421875 C 51.394531 -76.421875 56.796875 -75.1875 61.265625 -72.71875 C 65.742188 -70.257812 69.210938 -67.019531 71.671875 -63 C 74.140625 -58.988281 75.421875 -54.570312 75.515625 -49.75 L 16.578125 -49.75 C 16.273438 -47.53125 16.125 -45.21875 16.125 -42.8125 C 16.125 -35.976562 17.457031 -29.921875 20.125 -24.640625 C 22.789062 -19.367188 26.554688 -15.273438 31.421875 -12.359375 C 36.296875 -9.441406 42 -7.984375 48.53125 -7.984375 C 54.363281 -7.984375 59.441406 -9.1875 63.765625 -11.59375 C 68.085938 -14.007812 71.957031 -17.179688 75.375 -21.109375 L 76.71875 -19.75 C 74.207031 -16.226562 71.191406 -12.832031 67.671875 -9.5625 C 64.160156 -6.300781 60.21875 -3.640625 55.84375 -1.578125 C 51.476562 0.472656 46.582031 1.5 41.15625 1.5 Z M 17.03125 -51.703125 L 63.453125 -51.703125 C 62.953125 -55.117188 61.722656 -58.507812 59.765625 -61.875 C 57.804688 -65.238281 55.191406 -68.050781 51.921875 -70.3125 C 48.660156 -72.570312 44.71875 -73.703125 40.09375 -73.703125 C 33.664062 -73.804688 28.515625 -71.75 24.640625 -67.53125 C 20.773438 -63.3125 18.238281 -58.035156 17.03125 -51.703125 Z M 17.03125 -51.703125 "/></g></g></g><g fill="#3ed178" fill-opacity="1"><g transform="translate(516.806356, 457.132272)"><g><path d="M 7.6875 0 L 7.6875 -1.953125 C 10 -2.660156 11.582031 -4.171875 12.4375 -6.484375 C 13.289062 -8.796875 13.71875 -13.015625 13.71875 -19.140625 L 13.71875 -86.375 C 13.71875 -92.601562 13.289062 -96.847656 12.4375 -99.109375 C 11.582031 -101.367188 10 -102.847656 7.6875 -103.546875 L 7.6875 -105.515625 L 32.109375 -105.515625 L 32.109375 -103.546875 C 29.796875 -102.847656 28.210938 -101.367188 27.359375 -99.109375 C 26.503906 -96.847656 26.078125 -92.601562 26.078125 -86.375 L 26.078125 -57.125 L 83.5 -57.125 L 83.5 -86.375 C 83.5 -92.601562 83.070312 -96.847656 82.21875 -99.109375 C 81.363281 -101.367188 79.785156 -102.847656 77.484375 -103.546875 L 77.484375 -105.515625 L 101.890625 -105.515625 L 101.890625 -103.546875 C 99.578125 -102.847656 97.992188 -101.367188 97.140625 -99.109375 C 96.285156 -96.847656 95.859375 -92.601562 95.859375 -86.375 L 95.859375 -19.140625 C 95.859375 -13.015625 96.285156 -8.796875 97.140625 -6.484375 C 97.992188 -4.171875 99.578125 -2.660156 101.890625 -1.953125 L 101.890625 0 L 77.484375 0 L 77.484375 -1.953125 C 79.785156 -2.660156 81.363281 -4.171875 82.21875 -6.484375 C 83.070312 -8.796875 83.5 -13.015625 83.5 -19.140625 L 83.5 -54.71875 L 26.078125 -54.71875 L 26.078125 -19.140625 C 26.078125 -13.015625 26.503906 -8.796875 27.359375 -6.484375 C 28.210938 -4.171875 29.796875 -2.660156 32.109375 -1.953125 L 32.109375 0 Z M 7.6875 0 "/></g></g></g><g fill="#3ed178" fill-opacity="1"><g transform="translate(626.199084, 457.132272)"><g><path d="M 32.859375 1.5 C 24.921875 1.5 19.09375 -0.910156 15.375 -5.734375 C 11.65625 -10.554688 9.796875 -17.285156 9.796875 -25.921875 L 9.796875 -53.8125 C 9.796875 -57.332031 9.566406 -59.96875 9.109375 -61.71875 C 8.660156 -63.476562 8.007812 -64.757812 7.15625 -65.5625 C 6.300781 -66.375 5.171875 -67.082031 3.765625 -67.6875 L 3.765625 -69.34375 L 20.203125 -76.578125 L 21.5625 -75.515625 L 21.5625 -28.640625 C 21.5625 -20.097656 22.863281 -13.816406 25.46875 -9.796875 C 28.082031 -5.773438 32.40625 -3.765625 38.4375 -3.765625 C 42.851562 -3.765625 47.070312 -4.992188 51.09375 -7.453125 C 55.113281 -9.921875 58.832031 -12.960938 62.25 -16.578125 L 62.25 -53.8125 C 62.25 -57.332031 62.019531 -59.96875 61.5625 -61.71875 C 61.113281 -63.476562 60.460938 -64.757812 59.609375 -65.5625 C 58.753906 -66.375 57.625 -67.082031 56.21875 -67.6875 L 56.21875 -69.34375 L 72.65625 -76.578125 L 74.015625 -75.515625 L 74.015625 -19.140625 C 74.015625 -13.015625 74.441406 -8.796875 75.296875 -6.484375 C 76.148438 -4.171875 77.734375 -2.660156 80.046875 -1.953125 L 80.046875 0 L 67.234375 0 C 65.617188 0 64.382812 -0.453125 63.53125 -1.359375 C 62.675781 -2.265625 62.25 -3.820312 62.25 -6.03125 L 62.25 -13.71875 C 58.4375 -9.695312 53.988281 -6.15625 48.90625 -3.09375 C 43.832031 -0.03125 38.484375 1.5 32.859375 1.5 Z M 32.859375 1.5 "/></g></g></g><g fill="#3ed178" fill-opacity="1"><g transform="translate(711.483217, 457.132272)"><g><path d="M 4.828125 0 L 4.828125 -1.953125 C 7.140625 -2.660156 8.722656 -4.171875 9.578125 -6.484375 C 10.429688 -8.796875 10.859375 -13.015625 10.859375 -19.140625 L 10.859375 -53.8125 C 10.859375 -57.332031 10.65625 -59.96875 10.25 -61.71875 C 9.84375 -63.476562 9.1875 -64.757812 8.28125 -65.5625 C 7.382812 -66.375 6.234375 -67.082031 4.828125 -67.6875 L 4.828125 -69.34375 L 21.40625 -76.578125 L 22.609375 -75.515625 L 22.609375 -19.140625 C 22.609375 -13.015625 23.0625 -8.796875 23.96875 -6.484375 C 24.875 -4.171875 26.429688 -2.660156 28.640625 -1.953125 L 28.640625 0 Z M 7.53125 -94.0625 C 7.53125 -96.46875 8.332031 -98.472656 9.9375 -100.078125 C 11.550781 -101.691406 13.515625 -102.5 15.828125 -102.5 C 18.234375 -102.5 20.21875 -101.691406 21.78125 -100.078125 C 23.34375 -98.472656 24.125 -96.46875 24.125 -94.0625 C 24.125 -91.84375 23.316406 -89.90625 21.703125 -88.25 C 20.097656 -86.59375 18.140625 -85.765625 15.828125 -85.765625 C 13.515625 -85.765625 11.550781 -86.59375 9.9375 -88.25 C 8.332031 -89.90625 7.53125 -91.84375 7.53125 -94.0625 Z M 7.53125 -94.0625 "/></g></g></g><g fill="#3ed178" fill-opacity="1"><g transform="translate(745.385925, 457.132272)"><g><path d="M 34.0625 1.359375 C 28.03125 1.359375 22.578125 0.601562 17.703125 -0.90625 C 12.835938 -2.414062 9.144531 -3.972656 6.625 -5.578125 L 5.28125 -23.8125 L 6.625 -24.125 C 9.84375 -16.988281 14.0625 -11.382812 19.28125 -7.3125 C 24.507812 -3.238281 30.539062 -1.15625 37.375 -1.0625 C 42.101562 -1.0625 46 -2.34375 49.0625 -4.90625 C 52.125 -7.46875 53.65625 -10.859375 53.65625 -15.078125 C 53.65625 -18.691406 52.625 -21.601562 50.5625 -23.8125 C 48.507812 -26.019531 45.796875 -27.828125 42.421875 -29.234375 C 39.054688 -30.648438 35.414062 -31.957031 31.5 -33.15625 C 26.78125 -34.664062 22.5625 -36.25 18.84375 -37.90625 C 15.125 -39.5625 12.207031 -41.742188 10.09375 -44.453125 C 7.988281 -47.171875 6.9375 -50.789062 6.9375 -55.3125 C 6.9375 -61.25 9.320312 -66.25 14.09375 -70.3125 C 18.863281 -74.382812 25.625 -76.421875 34.375 -76.421875 C 39.289062 -76.421875 43.832031 -75.992188 48 -75.140625 C 52.175781 -74.285156 55.421875 -73.359375 57.734375 -72.359375 L 58.328125 -56.984375 L 56.828125 -56.671875 C 54.410156 -62.097656 50.941406 -66.421875 46.421875 -69.640625 C 41.898438 -72.859375 36.976562 -74.46875 31.65625 -74.46875 C 26.53125 -74.46875 22.429688 -73.3125 19.359375 -71 C 16.296875 -68.6875 14.765625 -65.617188 14.765625 -61.796875 C 14.765625 -58.679688 15.742188 -56.066406 17.703125 -53.953125 C 19.671875 -51.847656 22.285156 -50.066406 25.546875 -48.609375 C 28.816406 -47.148438 32.410156 -45.769531 36.328125 -44.46875 C 39.242188 -43.5625 42.179688 -42.578125 45.140625 -41.515625 C 48.109375 -40.460938 50.820312 -39.15625 53.28125 -37.59375 C 55.75 -36.039062 57.757812 -34.035156 59.3125 -31.578125 C 60.875 -29.117188 61.65625 -25.976562 61.65625 -22.15625 C 61.65625 -17.9375 60.625 -14.039062 58.5625 -10.46875 C 56.5 -6.90625 53.40625 -4.066406 49.28125 -1.953125 C 45.164062 0.148438 40.09375 1.253906 34.0625 1.359375 Z M 34.0625 1.359375 "/></g></g></g><g fill="#3ed178" fill-opacity="1"><g transform="translate(812.437964, 457.132272)"><g><path d="M 34.0625 1.359375 C 28.03125 1.359375 22.578125 0.601562 17.703125 -0.90625 C 12.835938 -2.414062 9.144531 -3.972656 6.625 -5.578125 L 5.28125 -23.8125 L 6.625 -24.125 C 9.84375 -16.988281 14.0625 -11.382812 19.28125 -7.3125 C 24.507812 -3.238281 30.539062 -1.15625 37.375 -1.0625 C 42.101562 -1.0625 46 -2.34375 49.0625 -4.90625 C 52.125 -7.46875 53.65625 -10.859375 53.65625 -15.078125 C 53.65625 -18.691406 52.625 -21.601562 50.5625 -23.8125 C 48.507812 -26.019531 45.796875 -27.828125 42.421875 -29.234375 C 39.054688 -30.648438 35.414062 -31.957031 31.5 -33.15625 C 26.78125 -34.664062 22.5625 -36.25 18.84375 -37.90625 C 15.125 -39.5625 12.207031 -41.742188 10.09375 -44.453125 C 7.988281 -47.171875 6.9375 -50.789062 6.9375 -55.3125 C 6.9375 -61.25 9.320312 -66.25 14.09375 -70.3125 C 18.863281 -74.382812 25.625 -76.421875 34.375 -76.421875 C 39.289062 -76.421875 43.832031 -75.992188 48 -75.140625 C 52.175781 -74.285156 55.421875 -73.359375 57.734375 -72.359375 L 58.328125 -56.984375 L 56.828125 -56.671875 C 54.410156 -62.097656 50.941406 -66.421875 46.421875 -69.640625 C 41.898438 -72.859375 36.976562 -74.46875 31.65625 -74.46875 C 26.53125 -74.46875 22.429688 -73.3125 19.359375 -71 C 16.296875 -68.6875 14.765625 -65.617188 14.765625 -61.796875 C 14.765625 -58.679688 15.742188 -56.066406 17.703125 -53.953125 C 19.671875 -51.847656 22.285156 -50.066406 25.546875 -48.609375 C 28.816406 -47.148438 32.410156 -45.769531 36.328125 -44.46875 C 39.242188 -43.5625 42.179688 -42.578125 45.140625 -41.515625 C 48.109375 -40.460938 50.820312 -39.15625 53.28125 -37.59375 C 55.75 -36.039062 57.757812 -34.035156 59.3125 -31.578125 C 60.875 -29.117188 61.65625 -25.976562 61.65625 -22.15625 C 61.65625 -17.9375 60.625 -14.039062 58.5625 -10.46875 C 56.5 -6.90625 53.40625 -4.066406 49.28125 -1.953125 C 45.164062 0.148438 40.09375 1.253906 34.0625 1.359375 Z M 34.0625 1.359375 "/></g></g></g><g clip-path="url(#c0031462a3)"><path fill="#3ed178" d="M 517.035156 495.152344 L 1025.441406 495.152344 L 1025.441406 592.789062 L 517.035156 592.789062 Z M 517.035156 495.152344 " fill-opacity="1" fill-rule="nonzero"/></g><g fill="#ffffff" fill-opacity="1"><g transform="translate(572.828665, 569.329014)"><g><path d="M 24.640625 0.765625 C 22.378906 0.765625 20.117188 0.597656 17.859375 0.265625 C 15.597656 -0.0664062 13.46875 -0.578125 11.46875 -1.265625 C 9.46875 -1.960938 7.671875 -2.820312 6.078125 -3.84375 C 5.160156 -4.46875 4.519531 -5.210938 4.15625 -6.078125 C 3.800781 -6.953125 3.6875 -7.8125 3.8125 -8.65625 C 3.9375 -9.507812 4.269531 -10.253906 4.8125 -10.890625 C 5.351562 -11.535156 6.03125 -11.929688 6.84375 -12.078125 C 7.664062 -12.234375 8.566406 -12.003906 9.546875 -11.390625 C 11.804688 -10.054688 14.191406 -9.082031 16.703125 -8.46875 C 19.222656 -7.851562 21.867188 -7.546875 24.640625 -7.546875 C 28.691406 -7.546875 31.640625 -8.222656 33.484375 -9.578125 C 35.335938 -10.941406 36.265625 -12.703125 36.265625 -14.859375 C 36.265625 -16.660156 35.609375 -18.070312 34.296875 -19.09375 C 32.992188 -20.125 30.75 -20.972656 27.5625 -21.640625 L 19.09375 -23.40625 C 14.21875 -24.4375 10.585938 -26.171875 8.203125 -28.609375 C 5.816406 -31.046875 4.625 -34.265625 4.625 -38.265625 C 4.625 -40.785156 5.132812 -43.070312 6.15625 -45.125 C 7.1875 -47.175781 8.640625 -48.945312 10.515625 -50.4375 C 12.390625 -51.925781 14.617188 -53.066406 17.203125 -53.859375 C 19.796875 -54.660156 22.660156 -55.0625 25.796875 -55.0625 C 28.878906 -55.0625 31.804688 -54.675781 34.578125 -53.90625 C 37.347656 -53.132812 39.835938 -52.003906 42.046875 -50.515625 C 42.867188 -49.953125 43.421875 -49.257812 43.703125 -48.4375 C 43.984375 -47.613281 44.046875 -46.800781 43.890625 -46 C 43.734375 -45.207031 43.375 -44.53125 42.8125 -43.96875 C 42.25 -43.40625 41.539062 -43.070312 40.6875 -42.96875 C 39.84375 -42.863281 38.882812 -43.117188 37.8125 -43.734375 C 35.90625 -44.816406 33.976562 -45.585938 32.03125 -46.046875 C 30.082031 -46.503906 27.976562 -46.734375 25.71875 -46.734375 C 23.351562 -46.734375 21.320312 -46.398438 19.625 -45.734375 C 17.9375 -45.066406 16.644531 -44.128906 15.75 -42.921875 C 14.851562 -41.722656 14.40625 -40.300781 14.40625 -38.65625 C 14.40625 -36.800781 15.019531 -35.320312 16.25 -34.21875 C 17.476562 -33.125 19.582031 -32.265625 22.5625 -31.640625 L 30.953125 -29.875 C 36.035156 -28.800781 39.820312 -27.109375 42.3125 -24.796875 C 44.800781 -22.484375 46.046875 -19.398438 46.046875 -15.546875 C 46.046875 -13.085938 45.546875 -10.859375 44.546875 -8.859375 C 43.546875 -6.859375 42.109375 -5.140625 40.234375 -3.703125 C 38.359375 -2.265625 36.109375 -1.160156 33.484375 -0.390625 C 30.867188 0.378906 27.921875 0.765625 24.640625 0.765625 Z M 24.640625 0.765625 "/></g></g></g><g fill="#ffffff" fill-opacity="1"><g transform="translate(621.395645, 569.329014)"><g><path d="M 9.78125 0.53125 C 8.238281 0.53125 7.054688 0.0703125 6.234375 -0.84375 C 5.410156 -1.769531 5 -3.054688 5 -4.703125 L 5 -32.953125 C 5 -34.648438 5.410156 -35.945312 6.234375 -36.84375 C 7.054688 -37.738281 8.238281 -38.1875 9.78125 -38.1875 C 11.320312 -38.1875 12.515625 -37.738281 13.359375 -36.84375 C 14.203125 -35.945312 14.625 -34.648438 14.625 -32.953125 L 14.625 -4.703125 C 14.625 -3.054688 14.210938 -1.769531 13.390625 -0.84375 C 12.578125 0.0703125 11.375 0.53125 9.78125 0.53125 Z M 9.78125 -45.359375 C 7.976562 -45.359375 6.578125 -45.804688 5.578125 -46.703125 C 4.578125 -47.597656 4.078125 -48.84375 4.078125 -50.4375 C 4.078125 -52.082031 4.578125 -53.335938 5.578125 -54.203125 C 6.578125 -55.078125 7.976562 -55.515625 9.78125 -55.515625 C 11.625 -55.515625 13.035156 -55.078125 14.015625 -54.203125 C 14.992188 -53.335938 15.484375 -52.082031 15.484375 -50.4375 C 15.484375 -48.84375 14.992188 -47.597656 14.015625 -46.703125 C 13.035156 -45.804688 11.625 -45.359375 9.78125 -45.359375 Z M 9.78125 -45.359375 "/></g></g></g><g fill="#ffffff" fill-opacity="1"><g transform="translate(641.022575, 569.329014)"><g><path d="M 9.78125 0.609375 C 8.238281 0.609375 7.054688 0.1875 6.234375 -0.65625 C 5.410156 -1.5 5 -2.71875 5 -4.3125 L 5 -33.421875 C 5 -35.015625 5.410156 -36.21875 6.234375 -37.03125 C 7.054688 -37.851562 8.210938 -38.265625 9.703125 -38.265625 C 11.191406 -38.265625 12.347656 -37.851562 13.171875 -37.03125 C 13.992188 -36.21875 14.40625 -35.015625 14.40625 -33.421875 L 14.40625 -28.1875 L 13.546875 -30.109375 C 14.679688 -32.828125 16.441406 -34.890625 18.828125 -36.296875 C 21.210938 -37.710938 23.921875 -38.421875 26.953125 -38.421875 C 29.984375 -38.421875 32.472656 -37.851562 34.421875 -36.71875 C 36.367188 -35.59375 37.828125 -33.890625 38.796875 -31.609375 C 39.773438 -29.328125 40.265625 -26.441406 40.265625 -22.953125 L 40.265625 -4.3125 C 40.265625 -2.71875 39.851562 -1.5 39.03125 -0.65625 C 38.21875 0.1875 37.039062 0.609375 35.5 0.609375 C 33.957031 0.609375 32.757812 0.1875 31.90625 -0.65625 C 31.0625 -1.5 30.640625 -2.71875 30.640625 -4.3125 L 30.640625 -22.484375 C 30.640625 -25.410156 30.085938 -27.539062 28.984375 -28.875 C 27.878906 -30.207031 26.175781 -30.875 23.875 -30.875 C 21.050781 -30.875 18.800781 -29.988281 17.125 -28.21875 C 15.457031 -26.445312 14.625 -24.097656 14.625 -21.171875 L 14.625 -4.3125 C 14.625 -1.03125 13.007812 0.609375 9.78125 0.609375 Z M 9.78125 0.609375 "/></g></g></g><g fill="#ffffff" fill-opacity="1"><g transform="translate(686.049045, 569.329014)"><g><path d="M 22.40625 0.765625 C 18.457031 0.765625 15.019531 -0.0390625 12.09375 -1.65625 C 9.164062 -3.269531 6.90625 -5.566406 5.3125 -8.546875 C 3.71875 -11.523438 2.921875 -15.015625 2.921875 -19.015625 C 2.921875 -22.046875 3.367188 -24.753906 4.265625 -27.140625 C 5.171875 -29.523438 6.46875 -31.550781 8.15625 -33.21875 C 9.851562 -34.894531 11.90625 -36.179688 14.3125 -37.078125 C 16.726562 -37.972656 19.425781 -38.421875 22.40625 -38.421875 C 24.101562 -38.421875 25.9375 -38.1875 27.90625 -37.71875 C 29.882812 -37.257812 31.75 -36.492188 33.5 -35.421875 C 34.320312 -34.910156 34.859375 -34.296875 35.109375 -33.578125 C 35.367188 -32.859375 35.421875 -32.125 35.265625 -31.375 C 35.109375 -30.632812 34.785156 -29.992188 34.296875 -29.453125 C 33.816406 -28.910156 33.21875 -28.578125 32.5 -28.453125 C 31.78125 -28.328125 30.984375 -28.492188 30.109375 -28.953125 C 28.972656 -29.617188 27.816406 -30.117188 26.640625 -30.453125 C 25.460938 -30.785156 24.332031 -30.953125 23.25 -30.953125 C 21.5625 -30.953125 20.070312 -30.679688 18.78125 -30.140625 C 17.5 -29.609375 16.410156 -28.835938 15.515625 -27.828125 C 14.617188 -26.828125 13.9375 -25.582031 13.46875 -24.09375 C 13.007812 -22.613281 12.78125 -20.894531 12.78125 -18.9375 C 12.78125 -15.144531 13.691406 -12.15625 15.515625 -9.96875 C 17.335938 -7.789062 19.914062 -6.703125 23.25 -6.703125 C 24.332031 -6.703125 25.453125 -6.851562 26.609375 -7.15625 C 27.765625 -7.46875 28.929688 -7.957031 30.109375 -8.625 C 30.984375 -9.082031 31.765625 -9.234375 32.453125 -9.078125 C 33.148438 -8.929688 33.726562 -8.585938 34.1875 -8.046875 C 34.644531 -7.503906 34.925781 -6.859375 35.03125 -6.109375 C 35.132812 -5.367188 35.046875 -4.640625 34.765625 -3.921875 C 34.484375 -3.203125 33.957031 -2.613281 33.1875 -2.15625 C 31.488281 -1.125 29.691406 -0.378906 27.796875 0.078125 C 25.898438 0.535156 24.101562 0.765625 22.40625 0.765625 Z M 22.40625 0.765625 "/></g></g></g><g fill="#ffffff" fill-opacity="1"><g transform="translate(722.378076, 569.329014)"><g><path d="M 23.5625 0.765625 C 19.300781 0.765625 15.628906 -0.0234375 12.546875 -1.609375 C 9.472656 -3.203125 7.097656 -5.460938 5.421875 -8.390625 C 3.753906 -11.316406 2.921875 -14.78125 2.921875 -18.78125 C 2.921875 -22.6875 3.726562 -26.101562 5.34375 -29.03125 C 6.96875 -31.957031 9.203125 -34.253906 12.046875 -35.921875 C 14.898438 -37.585938 18.148438 -38.421875 21.796875 -38.421875 C 24.460938 -38.421875 26.859375 -37.984375 28.984375 -37.109375 C 31.117188 -36.242188 32.941406 -34.988281 34.453125 -33.34375 C 35.972656 -31.695312 37.128906 -29.707031 37.921875 -27.375 C 38.710938 -25.039062 39.109375 -22.410156 39.109375 -19.484375 C 39.109375 -18.554688 38.785156 -17.847656 38.140625 -17.359375 C 37.503906 -16.867188 36.597656 -16.625 35.421875 -16.625 L 10.703125 -16.625 L 10.703125 -22.171875 L 32.34375 -22.171875 L 31.109375 -21.015625 C 31.109375 -23.378906 30.757812 -25.359375 30.0625 -26.953125 C 29.375 -28.546875 28.375 -29.765625 27.0625 -30.609375 C 25.757812 -31.453125 24.128906 -31.875 22.171875 -31.875 C 20.015625 -31.875 18.179688 -31.375 16.671875 -30.375 C 15.160156 -29.375 14.003906 -27.960938 13.203125 -26.140625 C 12.410156 -24.316406 12.015625 -22.148438 12.015625 -19.640625 L 12.015625 -19.09375 C 12.015625 -14.882812 13 -11.738281 14.96875 -9.65625 C 16.945312 -7.582031 19.863281 -6.546875 23.71875 -6.546875 C 25.050781 -6.546875 26.550781 -6.710938 28.21875 -7.046875 C 29.882812 -7.378906 31.460938 -7.957031 32.953125 -8.78125 C 34.035156 -9.394531 34.984375 -9.660156 35.796875 -9.578125 C 36.617188 -9.503906 37.273438 -9.210938 37.765625 -8.703125 C 38.253906 -8.191406 38.550781 -7.5625 38.65625 -6.8125 C 38.757812 -6.070312 38.617188 -5.316406 38.234375 -4.546875 C 37.847656 -3.773438 37.191406 -3.109375 36.265625 -2.546875 C 34.472656 -1.410156 32.40625 -0.570312 30.0625 -0.03125 C 27.726562 0.5 25.5625 0.765625 23.5625 0.765625 Z M 23.5625 0.765625 "/></g></g></g><g fill="#ffffff" fill-opacity="1"><g transform="translate(764.094898, 569.329014)"><g/></g></g><g fill="#ffffff" fill-opacity="1"><g transform="translate(784.953285, 569.329014)"><g><path d="M 10.234375 0 C 8.597656 0 7.40625 -0.367188 6.65625 -1.109375 C 5.914062 -1.859375 5.546875 -2.953125 5.546875 -4.390625 C 5.546875 -5.265625 5.773438 -6.109375 6.234375 -6.921875 C 6.703125 -7.742188 7.367188 -8.617188 8.234375 -9.546875 L 23.71875 -26.03125 C 26.082031 -28.488281 27.773438 -30.734375 28.796875 -32.765625 C 29.828125 -34.796875 30.34375 -36.835938 30.34375 -38.890625 C 30.34375 -41.453125 29.53125 -43.398438 27.90625 -44.734375 C 26.289062 -46.066406 23.941406 -46.734375 20.859375 -46.734375 C 19.117188 -46.734375 17.375 -46.488281 15.625 -46 C 13.882812 -45.519531 12.113281 -44.6875 10.3125 -43.5 C 9.394531 -42.882812 8.535156 -42.628906 7.734375 -42.734375 C 6.941406 -42.835938 6.25 -43.171875 5.65625 -43.734375 C 5.070312 -44.296875 4.675781 -44.988281 4.46875 -45.8125 C 4.257812 -46.632812 4.296875 -47.46875 4.578125 -48.3125 C 4.859375 -49.164062 5.460938 -49.898438 6.390625 -50.515625 C 8.597656 -52.003906 11.070312 -53.132812 13.8125 -53.90625 C 16.5625 -54.675781 19.320312 -55.0625 22.09375 -55.0625 C 26 -55.0625 29.285156 -54.46875 31.953125 -53.28125 C 34.617188 -52.101562 36.644531 -50.382812 38.03125 -48.125 C 39.414062 -45.863281 40.109375 -43.117188 40.109375 -39.890625 C 40.109375 -37.734375 39.757812 -35.625 39.0625 -33.5625 C 38.375 -31.507812 37.320312 -29.429688 35.90625 -27.328125 C 34.5 -25.222656 32.671875 -22.992188 30.421875 -20.640625 L 15.9375 -5.546875 L 15.9375 -8.15625 L 38.578125 -8.15625 C 39.960938 -8.15625 41.015625 -7.820312 41.734375 -7.15625 C 42.453125 -6.488281 42.8125 -5.488281 42.8125 -4.15625 C 42.8125 -2.820312 42.453125 -1.796875 41.734375 -1.078125 C 41.015625 -0.359375 39.960938 0 38.578125 0 Z M 10.234375 0 "/></g></g></g><g fill="#ffffff" fill-opacity="1"><g transform="translate(831.134257, 569.329014)"><g><path d="M 23.09375 0.765625 C 16.675781 0.765625 11.773438 -1.65625 8.390625 -6.5 C 5.003906 -11.351562 3.3125 -18.273438 3.3125 -27.265625 C 3.3125 -33.316406 4.066406 -38.40625 5.578125 -42.53125 C 7.097656 -46.664062 9.332031 -49.785156 12.28125 -51.890625 C 15.226562 -54.003906 18.832031 -55.0625 23.09375 -55.0625 C 29.5625 -55.0625 34.476562 -52.695312 37.84375 -47.96875 C 41.207031 -43.25 42.890625 -36.367188 42.890625 -27.328125 C 42.890625 -21.328125 42.128906 -16.234375 40.609375 -12.046875 C 39.097656 -7.867188 36.878906 -4.6875 33.953125 -2.5 C 31.023438 -0.320312 27.40625 0.765625 23.09375 0.765625 Z M 23.09375 -7.3125 C 26.59375 -7.3125 29.175781 -8.925781 30.84375 -12.15625 C 32.507812 -15.394531 33.34375 -20.453125 33.34375 -27.328125 C 33.34375 -34.210938 32.507812 -39.207031 30.84375 -42.3125 C 29.175781 -45.414062 26.59375 -46.96875 23.09375 -46.96875 C 19.65625 -46.96875 17.085938 -45.414062 15.390625 -42.3125 C 13.703125 -39.207031 12.859375 -34.210938 12.859375 -27.328125 C 12.859375 -20.453125 13.703125 -15.394531 15.390625 -12.15625 C 17.085938 -8.925781 19.65625 -7.3125 23.09375 -7.3125 Z M 23.09375 -7.3125 "/></g></g></g><g fill="#ffffff" fill-opacity="1"><g transform="translate(877.31523, 569.329014)"><g><path d="M 12.015625 0 C 10.679688 0 9.640625 -0.367188 8.890625 -1.109375 C 8.148438 -1.859375 7.78125 -2.875 7.78125 -4.15625 C 7.78125 -5.488281 8.148438 -6.488281 8.890625 -7.15625 C 9.640625 -7.820312 10.679688 -8.15625 12.015625 -8.15625 L 20.640625 -8.15625 L 20.640625 -45.96875 L 25.40625 -45.96875 L 14.09375 -39.109375 C 13.113281 -38.546875 12.203125 -38.328125 11.359375 -38.453125 C 10.515625 -38.585938 9.796875 -38.945312 9.203125 -39.53125 C 8.609375 -40.125 8.207031 -40.832031 8 -41.65625 C 7.800781 -42.476562 7.867188 -43.3125 8.203125 -44.15625 C 8.535156 -45.007812 9.1875 -45.71875 10.15625 -46.28125 L 20.796875 -52.671875 C 21.816406 -53.285156 22.835938 -53.8125 23.859375 -54.25 C 24.890625 -54.6875 25.84375 -54.90625 26.71875 -54.90625 C 27.800781 -54.90625 28.695312 -54.609375 29.40625 -54.015625 C 30.125 -53.421875 30.484375 -52.457031 30.484375 -51.125 L 30.484375 -8.15625 L 38.34375 -8.15625 C 39.675781 -8.15625 40.710938 -7.820312 41.453125 -7.15625 C 42.203125 -6.488281 42.578125 -5.488281 42.578125 -4.15625 C 42.578125 -2.820312 42.203125 -1.796875 41.453125 -1.078125 C 40.710938 -0.359375 39.675781 0 38.34375 0 Z M 12.015625 0 "/></g></g></g><g fill="#ffffff" fill-opacity="1"><g transform="translate(923.496203, 569.329014)"><g><path d="M 13.25 0.609375 C 12.0625 0.609375 11.082031 0.328125 10.3125 -0.234375 C 9.539062 -0.796875 9.078125 -1.550781 8.921875 -2.5 C 8.773438 -3.445312 9.007812 -4.515625 9.625 -5.703125 L 32.875 -49.4375 L 32.875 -46.046875 L 7.9375 -46.046875 C 6.550781 -46.046875 5.484375 -46.40625 4.734375 -47.125 C 3.992188 -47.84375 3.625 -48.84375 3.625 -50.125 C 3.625 -51.457031 3.992188 -52.484375 4.734375 -53.203125 C 5.484375 -53.921875 6.550781 -54.28125 7.9375 -54.28125 L 37.734375 -54.28125 C 39.117188 -54.28125 40.242188 -53.921875 41.109375 -53.203125 C 41.984375 -52.484375 42.421875 -51.457031 42.421875 -50.125 C 42.421875 -49 42.265625 -48.007812 41.953125 -47.15625 C 41.648438 -46.3125 41.242188 -45.398438 40.734375 -44.421875 L 18.859375 -2.625 C 18.296875 -1.488281 17.566406 -0.664062 16.671875 -0.15625 C 15.773438 0.351562 14.632812 0.609375 13.25 0.609375 Z M 13.25 0.609375 "/></g></g></g></svg>